<svg width="24" height="24" viewBox="0 0 24 24" fill="none" xmlns="http://www.w3.org/2000/svg">
<path d="M2.57128 14.9994V19.2852C2.57128 20.1945 2.9325 21.0665 3.57548 21.7095C4.21846 22.3525 5.09053 22.7137 5.99985 22.7137H17.9998C18.9092 22.7137 19.7812 22.3525 20.4242 21.7095C21.0672 21.0665 21.4284 20.1945 21.4284 19.2852V14.9994M14.5713 14.9994V22.6949M2.57128 17.1423H14.5713M6.05813 11.4166C7.35242 11.4166 8.50099 10.796 9.22271 9.83602C9.59064 10.3281 10.0682 10.7276 10.6176 11.0027C11.1669 11.2779 11.7729 11.4212 12.3873 11.4212C13.0017 11.4212 13.6076 11.2779 14.157 11.0027C14.7063 10.7276 15.1839 10.3281 15.5518 9.83602C16.0502 10.5001 16.7448 10.9906 17.5374 11.238C18.3299 11.4854 19.1802 11.4772 19.9679 11.2146C20.7555 10.952 21.4406 10.4483 21.9261 9.77472C22.4116 9.10119 22.6729 8.292 22.673 7.46173C22.673 6.40573 21.8827 3.12459 18.7164 1.85602C13.8067 1.0983 11.0364 1.09144 6.05813 1.85602C2.89356 3.12459 2.10156 6.40573 2.10156 7.46173C2.10292 8.5105 2.52027 9.51591 3.26202 10.2573C4.00378 10.9988 5.00936 11.4157 6.05813 11.4166Z" stroke="#53545C" stroke-width="1.71429" stroke-linecap="round" stroke-linejoin="round"/>
</svg>
